<svg width="400" height="300" viewBox="0 0 400 300" xmlns="http://www.w3.org/2000/svg">
  <defs>
    <linearGradient id="bg" x1="0%" y1="0%" x2="100%" y2="100%">
      <stop offset="0%" style="stop-color:#3B82F6;stop-opacity:1" />
      <stop offset="100%" style="stop-color:#1E40AF;stop-opacity:1" />
    </linearGradient>
  </defs>
  
  <!-- Background -->
  <rect width="400" height="300" fill="url(#bg)" rx="20"/>
  
  <!-- Note 1 -->
  <rect x="50" y="60" width="120" height="80" fill="#FEF3C7" stroke="#F59E0B" stroke-width="2" rx="8"/>
  <rect x="60" y="70" width="80" height="4" fill="#F59E0B" rx="2"/>
  <rect x="60" y="80" width="60" height="4" fill="#F59E0B" rx="2"/>
  <rect x="60" y="90" width="70" height="4" fill="#F59E0B" rx="2"/>
  
  <!-- Note 2 -->
  <rect x="200" y="80" width="100" height="60" fill="#DBEAFE" stroke="#3B82F6" stroke-width="2" rx="8"/>
  <rect x="210" y="90" width="70" height="3" fill="#3B82F6" rx="2"/>
  <rect x="210" y="98" width="50" height="3" fill="#3B82F6" rx="2"/>
  <rect x="210" y="106" width="60" height="3" fill="#3B82F6" rx="2"/>
  
  <!-- Note 3 -->
  <rect x="80" y="180" width="140" height="70" fill="#FCE7F3" stroke="#EC4899" stroke-width="2" rx="8"/>
  <rect x="90" y="190" width="100" height="3" fill="#EC4899" rx="2"/>
  <rect x="90" y="198" width="80" height="3" fill="#EC4899" rx="2"/>
  <rect x="90" y="206" width="90" height="3" fill="#EC4899" rx="2"/>
  
  <!-- Tags -->
  <rect x="280" y="40" width="60" height="25" fill="#10B981" rx="12"/>
  <text x="310" y="56" text-anchor="middle" fill="white" font-family="Arial" font-size="12" font-weight="bold">Tag</text>
  
  <rect x="280" y="75" width="60" height="25" fill="#8B5CF6" rx="12"/>
  <text x="310" y="91" text-anchor="middle" fill="white" font-family="Arial" font-size="12" font-weight="bold">Tag</text>
  
  <rect x="280" y="110" width="60" height="25" fill="#F59E0B" rx="12"/>
  <text x="310" y="126" text-anchor="middle" fill="white" font-family="Arial" font-size="12" font-weight="bold">Tag</text>
  
  <!-- Search icon -->
  <circle cx="320" cy="200" r="15" fill="none" stroke="white" stroke-width="2"/>
  <line x1="330" y1="210" x2="340" y2="220" stroke="white" stroke-width="2"/>
  
  <!-- Title -->
  <text x="200" y="280" text-anchor="middle" fill="white" font-family="Arial" font-size="18" font-weight="bold">Notes App</text>
</svg> 